<?xml version="1.0" standalone="no"?><!DOCTYPE svg PUBLIC "-//W3C//DTD SVG 1.1//EN" "http://www.w3.org/Graphics/SVG/1.1/DTD/svg11.dtd"><svg class="icon" height="512" viewBox="0 0 1024 1024" version="1.1" xmlns="http://www.w3.org/2000/svg"><path d="M914.801778 336.412444c-0.625778 0-1.251556 0.113778-1.848889 0.113778C869.233778 147.313778 702.236444 6.172444 501.987556 6.172444 296.248889 6.172444 125.44 155.107556 87.580444 352.142222c-36.807111 6.627556-60.785778 38.997333-60.785777 78.136889v156.615111c0 43.889778 31.146667 79.502222 74.609777 79.502222 24.519111 0 46.165333-11.576889 60.558223-29.354666a365.568 365.568 0 0 0 195.214222 205.312 43.804444 43.804444 0 0 1 3.953778-6.4c1.422222-1.820444 2.986667-3.299556 4.352-3.299556 1.393778 0 2.702222 0.512 3.811555 1.28-20.736-15.445333-95.658667-94.805333-111.900444-205.596444-7.111111-48.782222 29.383111-96.597333 71.907555-104.533334 68.266667-12.714667 136.220444-27.221333 204.458667-39.708444 43.406222-7.907556 73.045333-31.715556 91.221333-71.367111 4.209778-9.244444 10.382222-27.989333 13.198223-55.04a8.419556 8.419556 0 0 1 8.248888-7.082667c2.844444 0 5.233778 1.422222 6.798223 3.498667l1.877333-1.166222c26.908444 39.054222 80.270222 125.582222 87.950222 216.803555 8.817778 104.277333 3.896889 175.729778-75.946666 248.775111a6.456889 6.456889 0 0 0-2.104889 4.778667c0 2.247111 1.194667 4.152889 2.958222 5.347556l1.934222 0.910222c0.568889 0.113778 1.052444 0.284444 1.621333 0.284444 0.540444 0 0.995556-0.170667 1.507556-0.284444 1.109333-0.597333 2.190222-1.308444 3.299556-1.877334a364.942222 364.942222 0 0 0 171.264-208.071111 80.753778 80.753778 0 0 0 50.801777 33.905778c-33.792 153.685333-170.894222 249.884444-340.736 264.504889a69.518222 69.518222 0 0 0-64.654222-43.178667c-38.428444 0-69.603556 30.407111-69.603555 67.953778 0 37.489778 31.146667 67.925333 69.603555 67.925333 30.976 0 56.945778-19.911111 65.934222-47.246222 196.608-16.014222 354.190222-132.864 387.100445-314.424889a80.213333 80.213333 0 0 0 49.436444-73.955555v-158.464c0.085333-44.288-36.067556-80.213333-80.668444-80.213334z m-72.533334 45.539556c-51.285333-138.922667-184.177778-238.136889-340.451555-238.136889-155.648 0-288.028444 98.389333-339.797333 236.401778-2.56-3.157333-5.575111-5.859556-8.561778-8.590222 29.297778-168.163556 174.023111-296.021333 348.529778-296.021334 173.653333 0 317.952 126.606222 348.216888 293.603556a77.084444 77.084444 0 0 0-7.936 12.743111z" /></svg>