<svg width="20" height="31" viewBox="0 0 20 31" xmlns="http://www.w3.org/2000/svg"><title>Icon</title><g fill="none" fill-rule="evenodd"><path d="M9.9 30.418c.063-.024.096-.035.125-.047 1.922-.85 3.753-1.721 5.378-2.638 1.53-.862 2.908-1.747 3.802-2.705.557-.596.824-1.201.466-1.824-1.026-1.783-6.092-2.935-11.535-2.623-5.457.314-9.072 2.091-7.923 3.88.432.672 1.153 1.308 2.04 1.926 1.71 1.19 3.852 2.295 6.166 3.365.479.221.975.439 1.48.666" fill-opacity=".3" fill="#000"/><path d="M9.9 30.418c.063-.073.096-.107.125-.145 1.922-2.617 3.753-5.296 5.378-8.115 1.53-2.652 2.908-5.373 3.802-8.32.557-1.834.824-3.697.466-5.612C18.645 2.74 13.579-.804 8.136.157 2.68 1.122-.936 6.59.213 12.093c.432 2.067 1.153 4.024 2.04 5.924 1.71 3.66 3.852 7.059 6.166 10.351.479.682.975 1.351 1.48 2.05" fill="#000"/><path d="M9.882 14.955a4.947 4.947 0 0 1-4.852-5.05c.05-2.69 2.332-4.901 4.988-4.835 2.667.067 4.852 2.34 4.8 4.996-.051 2.72-2.305 4.952-4.936 4.89" fill="#FFF"/></g></svg>